<svg
  class="extra-button"
  onclick="showInfoPanel()"
  t="1576649521300"
  viewBox="0 0 1024 1024"
  version="1.1"
  xmlns="http://www.w3.org/2000/svg"
  p-id="3900"
  width="200"
  height="200"
>
  <path
    d="M311.808 533.504c16.384 10.752 27.136 17.408 52.736 17.408s36.352-7.168 52.736-17.408c20.48-12.8 45.568-38.912 92.672-38.912s72.704 26.112 93.184 38.912c16.384 10.752 27.136 17.408 52.736 17.408s36.352-5.12 52.736-15.872c20.48-12.8 46.08-24.576 93.696-24.576 16.896 0 31.232 2.048 43.008 5.632V438.272c-1.024-29.696-35.328-55.808-55.808-55.808l-93.184-0.512H325.12l-92.672 0.512c-42.496 3.584-55.808 35.328-55.808 55.808l-0.512 77.824c11.776-3.072 26.112-5.632 43.008-5.632 47.104 0.512 72.192 9.728 92.672 23.04m534.016 297.984v-241.664c-11.776-7.168-23.04-11.264-43.008-11.264-25.6 0-36.864 7.168-53.76 17.408-20.48 12.8-45.568 29.184-93.184 29.184-59.392 0-81.408-56.32-145.92-56.32-64 0-86.528 56.32-145.92 56.32-47.104 0-72.704-16.384-93.184-29.184-16.384-10.24-27.136-17.408-52.736-17.408-19.968 0-31.232 4.096-43.008 11.264v241.664m671.232 0H176.128"
    fill="#CE4155"
    p-id="3901"
  ></path>
  <path
    d="M902.144 832.512H125.44c-20.48 0-37.376 16.896-37.376 37.376s16.896 37.376 37.376 37.376h776.704c20.48 0 37.376-16.896 37.376-37.376s-16.896-37.376-37.376-37.376z"
    fill="#3BBCB5"
    p-id="3902"
  ></path>
  <path
    d="M348.672 140.288c-13.824-10.24-11.776-34.304-17.92-34.304-6.656 0-37.888 40.96-28.16 86.016s46.08 49.664 46.08 49.664 25.088 6.656 36.864-23.552c10.24-37.888-23.04-68.096-36.864-77.824zM512 140.8c-13.824-10.24-11.776-34.304-17.92-34.304-6.656 0-37.888 40.96-28.16 86.016s46.08 49.664 46.08 49.664 25.088 6.656 36.864-23.552c10.24-37.888-23.04-68.096-36.864-77.824zM668.16 146.944c-13.824-10.24-11.776-34.304-17.92-34.304-6.144 0-37.888 40.96-28.16 86.016s46.08 49.664 46.08 49.664 25.088 6.656 36.864-23.552c10.24-37.888-23.04-68.096-36.864-77.824z"
    fill="#EA5969"
    p-id="3903"
  ></path>
  <path
    d="M334.336 254.464h45.568v123.392h-45.568V254.464zM497.664 254.976h45.568v123.392h-45.568V254.976zM650.24 254.464h45.568v123.392H650.24V254.464z"
    fill="#5CE4E1"
    p-id="3904"
  ></path>
</svg>
